<svg aria-hidden="true" style="position: absolute; width: 0; height: 0; overflow: hidden;" version="1.1" xmlns="http://www.w3.org/2000/svg" xmlns:xlink="http://www.w3.org/1999/xlink">
<defs>
<symbol id="dribbble" viewBox="0 0 30 32">
<path fill="#5a5a5a" style="fill: var(--color1, #5a5a5a)" d="M15.238 0.677c-8.402 0-15.238 6.906-15.238 15.394s6.836 15.39 15.238 15.39 15.238-6.903 15.238-15.39c0-8.488-6.836-15.394-15.238-15.394zM25.265 7.942c1.733 2.156 2.797 4.913 2.843 7.918l0 0.010c-1.788-0.366-3.845-0.577-5.951-0.582h-0.004c-0.945 0-1.938 0.049-2.935 0.172-0.084-0.206-0.168-0.411-0.258-0.62-0.259-0.616-0.536-1.225-0.824-1.826 4.504-1.877 6.677-4.483 7.128-5.074zM23.72 6.316c-2.242-2.005-5.218-3.23-8.48-3.23-1.030 0-2.031 0.122-2.99 0.353l0.087-0.018c0.523 0.716 2.723 3.794 4.734 7.511 4.343-1.661 6.29-4.12 6.648-4.616zM9.708 4.349c1.502 2.080 3.060 4.501 4.493 7.003l0.217 0.412c-5.534 1.472-10.45 1.566-11.636 1.566h-0.126c0.878-3.984 3.485-7.225 6.976-8.949l0.076-0.034zM2.37 15.768c-0.003 0.101-0.004 0.221-0.004 0.34 0 3.301 1.228 6.316 3.253 8.611l-0.012-0.014c0.544-0.91 4.081-6.473 10.514-8.576 0.142-0.046 0.285-0.088 0.428-0.13-0.424-0.969-0.753-1.652-1.099-2.324l0.115 0.246c-5.714 1.714-11.261 1.848-12.858 1.848h-0.337zM15.238 29.093c-0.001 0-0.002 0-0.004 0-2.974 0-5.709-1.020-7.876-2.728l0.027 0.021c0.367-0.73 3.037-5.591 10.088-8.072 0.004-0.002 0.009-0.003 0.015-0.004l0.001-0c1.768 4.655 2.517 8.562 2.722 9.774-1.463 0.639-3.168 1.010-4.959 1.010-0.005 0-0.009 0-0.014 0h0.001zM20.062 17.67c1.6 4.465 2.295 8.128 2.467 9.129 2.824-1.988 4.805-5.009 5.397-8.502l0.011-0.077c-0.489-0.152-2.594-0.747-5.285-0.747-0.82 0-1.693 0.055-2.59 0.197z"></path>
</symbol>
<symbol id="behance" viewBox="0 0 43 32">
<path fill="#5a5a5a" style="fill: var(--color1, #5a5a5a)" d="M17.22 14.592s4.032-0.314 4.032-5.331c0-5.003-3.296-7.458-7.484-7.458h-13.769v28.021h13.769s8.41 0.273 8.41-8.277c0 0 0.363-6.953-4.958-6.953zM23.223 19.691c0-0.053 0.013-10.756 10.161-10.756 10.716 0 9.21 12.16 9.21 12.16h-13.705c0 5.197 4.651 4.87 4.651 4.87 4.403 0 4.25-3.014 4.25-3.014h4.651c0 8.004-9.056 7.458-9.056 7.458-10.859 0-10.161-10.716-10.161-10.716zM33.489 13.037c-4.085 0-4.651 4.309-4.651 4.309h8.683s0.064-4.309-4.032-4.309zM13.769 6.78h-7.701v6.255h7.223c1.248 0 2.345-0.422 2.345-3.339 0-2.918-1.869-2.918-1.869-2.918zM13.385 24.845h-7.317v-7.499h7.701s2.795-0.028 2.782 3.859c0 3.273-2.074 3.614-3.168 3.642zM27.691 6.903v-3.45h10.923v3.45h-10.923z"></path>
</symbol>
<symbol id="youtube" viewBox="0 0 26 32">
<path fill="#5a5a5a" style="fill: var(--color1, #5a5a5a)" d="M8.078 12.264l0.002-6.469 2.213-5.544h-2.048l-1.176 4.117-1.194-4.128h-2.024l2.352 5.56 0.003 6.464h1.872zM10.346 4.749c0.134-0.454 0.378-0.819 0.73-1.094 0.35-0.277 0.8-0.416 1.344-0.416l-0.003 0c0.022-0.001 0.045-0.001 0.067-0.001 0.408 0 0.793 0.099 1.119 0.268l0.011 0.005c0.303 0.158 0.56 0.393 0.749 0.686l-0.006-0.010c0.171 0.263 0.298 0.557 0.374 0.89 0.067 0.302 0.099 0.763 0.099 1.381v2.133c0 0.782-0.032 1.357-0.093 1.725l-0.002 0.016c-0.062 0.37-0.199 0.715-0.388 1.008-0.197 0.315-0.453 0.55-0.763 0.701-0.314 0.152-0.672 0.226-1.077 0.226-0.453 0-0.834-0.061-1.147-0.192-0.315-0.13-0.558-0.326-0.731-0.586-0.176-0.259-0.299-0.576-0.371-0.944-0.077-0.371-0.112-0.925-0.112-1.664v-2.234c0-0.81 0.067-1.442 0.202-1.898zM16.157 11.411c-0.091-0.227-0.147-0.461-0.171-0.704-0.022-0.245-0.035-0.728-0.035-1.453v-5.69h1.63v6.565c0 0.36 0.292 0.651 0.651 0.651s0.651-0.292 0.651-0.651v-6.565h1.562v8.435h-1.984l0.034-0.699c-0.136 0.285-0.302 0.496-0.501 0.64-0.197 0.142-0.424 0.213-0.68 0.213l0.002-0c-0.016 0.001-0.033 0.001-0.049 0.001-0.254 0-0.491-0.076-0.683-0.204-0.194-0.136-0.336-0.317-0.427-0.541zM25.6 27c0 2.173-1.885 3.949-4.189 3.949h-17.222c-2.306 0-4.189-1.778-4.189-3.949v-9.056c0-2.173 1.885-3.952 4.189-3.952h17.222c2.304 0 4.189 1.779 4.189 3.952v9.056zM15.33 20.605c0.429 0 0.781 0.288 0.781 0.64v4.762c0 0.352-0.35 0.637-0.781 0.637-0.426 0-0.776-0.285-0.776-0.637v-4.76c0-0.352 0.35-0.64 0.776-0.64zM21.654 22.704l0.021-0.979c0-0.435-0.358-0.79-0.797-0.79h-0.107c-0.438 0-0.795 0.355-0.795 0.79l-0.008 0.978h1.686zM5.338 27.982v-9.539h2.133v-1.413l-5.69-0.010v1.39l1.776 0.005v9.568h1.781zM9.957 19.864v5.097c0.001 0.25 0.005 0.5 0.013 0.709 0.008 0.28 0.013 0.445-0.014 0.523-0.146 0.395-0.797 0.814-1.050 0.043-0.027-0.083-0.022-0.272-0.016-0.571 0.005-0.182 0.010-0.406 0.010-0.672l-0.008-5.13h-1.77l0.006 5.048-0.003 0.73 0-0.016c-0.003 0.11-0.005 0.22-0.005 0.33 0 0.2 0.005 0.399 0.014 0.569l-0.003-0.038c0.005 0.061 0.010 0.122 0.015 0.213 0.032 0.418 0.067 0.866 0.443 1.136 0.8 0.578 2.336-0.086 2.72-0.91l-0.003 1.051 1.429 0.003v-8.117h-1.779zM17.432 25.698l-0.003-4.24c-0.002-1.616-1.211-2.584-2.854-1.277l0.008-3.152-1.778 0.003-0.010 10.88 1.462-0.022 0.133-0.678c1.869 1.717 3.045 0.541 3.040-1.514zM21.667 25.142l-0.002 0.099-0.002 0.082v0.746c0 0.398-0.328 0.722-0.728 0.722h-0.262c-0.4 0-0.73-0.323-0.73-0.722v-1.958h3.056v-1.15c0-0.84-0.021-1.68-0.091-2.16-0.218-1.52-2.352-1.762-3.43-0.984-0.339 0.243-0.597 0.568-0.747 1.006-0.152 0.437-0.227 1.034-0.227 1.792v2.528c0.002 4.202 5.107 3.61 4.499-0.006l-1.336 0.006zM11.698 9.997c0 0.477 0.355 0.867 0.789 0.867 0.432 0 0.787-0.389 0.787-0.867v-4.49c0-0.478-0.354-0.867-0.787-0.867-0.432 0-0.789 0.389-0.789 0.867v4.49z"></path>
</symbol>
<symbol id="vimeo" viewBox="0 0 34 32">
<path fill="#5a5a5a" style="fill: var(--color1, #5a5a5a)" d="M0 9.634c2.964-2.4 7.178-7.668 10.466-7.668 3.283 0 4.089 3.933 4.537 7.498 0.455 3.567 1.743 11.368 3.48 11.368 1.738 0 5.699-6.902 5.474-9.568-0.222-2.666-3.091-2.267-4.669-1.501 1.45-5.332 4.8-8.168 9.081-8.168 4.283 0 5.315 3.070 5.315 6.836 0 5.735-11.463 23.303-18.387 23.303-4.283 0-5.346-6.4-6.215-9.57-0.869-3.165-2.577-11.469-4.573-12.002-0.775-0.13-2.964 1.632-2.964 1.632l-1.546-2.163z"></path>
</symbol>
<symbol id="twitter" viewBox="0 0 36 32">
<path fill="#5a5a5a" style="fill: var(--color1, #5a5a5a)" d="M35.556 4.658c-1.219 0.574-2.634 0.991-4.12 1.179l-0.070 0.007c1.519-0.958 2.654-2.404 3.194-4.116l0.014-0.053c-1.331 0.831-2.883 1.465-4.54 1.813l-0.093 0.016c-1.317-1.46-3.215-2.375-5.326-2.379h-0.001c-4.027 0-7.294 3.374-7.294 7.534 0 0.592 0.064 1.166 0.19 1.717-6.062-0.313-11.438-3.314-15.036-7.874-0.622 1.085-0.988 2.386-0.988 3.772 0 0.006 0 0.013 0 0.019v-0.001c0 2.613 1.289 4.921 3.246 6.272-1.222-0.041-2.356-0.385-3.338-0.96l0.033 0.018v0.094c0 3.652 2.516 6.697 5.852 7.388-0.576 0.169-1.237 0.267-1.921 0.267-0.486 0-0.96-0.049-1.419-0.143l0.045 0.008c0.928 2.992 3.621 5.172 6.814 5.232-2.448 2.007-5.612 3.224-9.060 3.224-0.613 0-1.218-0.038-1.811-0.113l0.071 0.007c3.142 2.121 7.014 3.386 11.182 3.387h0c13.417 0 20.754-11.483 20.754-21.44 0-0.327-0.007-0.652-0.021-0.976 1.437-1.082 2.646-2.373 3.605-3.843l0.035-0.058z"></path>
</symbol>
<symbol id="pinterest" viewBox="0 0 23 32">
<path fill="#5a5a5a" style="fill: var(--color1, #5a5a5a)" d="M19.893 4.294c-2.004-2.034-4.773-3.154-7.802-3.154-4.625-0.002-7.468 2.005-9.041 3.691-1.94 2.075-3.051 4.83-3.051 7.558 0 3.429 1.355 6.059 3.622 7.037 0.152 0.066 0.305 0.099 0.456 0.099 0.478 0 0.856-0.332 0.987-0.862 0.076-0.305 0.254-1.058 0.332-1.384 0.165-0.646 0.030-0.955-0.329-1.405-0.655-0.821-0.96-1.792-0.96-3.057 0-3.755 2.641-7.746 7.535-7.746 3.886 0 6.298 2.338 6.298 6.098 0 2.374-0.483 4.571-1.361 6.191-0.61 1.125-1.681 2.464-3.328 2.464-0.712 0-1.35-0.309-1.752-0.849-0.382-0.509-0.507-1.169-0.355-1.854 0.174-0.777 0.41-1.585 0.638-2.368 0.416-1.429 0.811-2.779 0.811-3.855 0-1.842-1.070-3.080-2.662-3.080-2.024 0-3.608 2.174-3.608 4.952 0 1.361 0.343 2.38 0.497 2.77-0.254 1.143-1.768 7.939-2.057 9.219-0.165 0.75-1.166 6.658 0.491 7.128 1.861 0.529 3.525-5.225 3.694-5.876 0.137-0.529 0.617-2.528 0.911-3.758 0.899 0.917 2.345 1.536 3.753 1.536 2.653 0 5.039-1.265 6.72-3.558 1.626-2.226 2.525-5.33 2.525-8.736 0-2.664-1.082-5.288-2.964-7.203z"></path>
</symbol>
<symbol id="instagram" viewBox="0 0 30 32">
<path fill="#666" style="fill: var(--color2, #666)" d="M9.524 0.23h11.429c5.259 0 9.524 4.311 9.524 9.621v11.543c0 5.312-4.265 9.621-9.524 9.621h-11.429c-5.259 0-9.524-4.309-9.524-9.621v-11.543c0-5.312 4.265-9.623 9.524-9.623zM20.952 28.13c3.677 0 6.667-3.022 6.667-6.735v-11.543c0-3.714-2.99-6.735-6.667-6.735h-11.429c-3.677 0-6.667 3.022-6.667 6.735v11.543c0 3.714 2.99 6.735 6.667 6.735h11.429z"></path>
<path fill="#5a5a5a" style="fill: var(--color1, #5a5a5a)" d="M7.619 15.622c0-4.25 3.412-7.695 7.619-7.695s7.619 3.445 7.619 7.695c0 4.251-3.412 7.697-7.619 7.697s-7.619-3.445-7.619-7.695zM10.476 15.622c0 2.651 2.136 4.811 4.762 4.811s4.762-2.159 4.762-4.811-2.136-4.809-4.762-4.809-4.762 2.156-4.762 4.809z"></path>
<path fill="#5a5a5a" style="fill: var(--color1, #5a5a5a)" d="M22.857 7.927c0.841 0 1.524-0.689 1.524-1.539s-0.683-1.539-1.524-1.539-1.524 0.689-1.524 1.539 0.683 1.539 1.524 1.539z"></path>
</symbol>
<symbol id="google" viewBox="0 0 47 32">
<path fill="#5a5a5a" style="fill: var(--color1, #5a5a5a)" d="M0.009 15.616c-0.277-7.415 6.114-14.266 13.419-14.357 3.723-0.322 7.345 1.146 10.163 3.541-1.183 1.341-2.354 2.567-3.571 3.747l-0.017 0.017c-2.481-1.532-5.468-2.699-8.365-1.664-4.676 1.355-7.509 6.963-5.777 11.612 1.434 4.853 7.243 7.516 11.797 5.476 2.357-0.858 3.913-3.068 4.593-5.442-2.701-0.055-5.404-0.021-8.107-0.096-0.006-1.634-0.013-3.262-0.006-4.896 4.506-0.006 9.020-0.021 13.532 0.021 0.277 4.002-0.303 8.286-2.865 11.499-3.505 4.587-9.984 5.931-15.255 4.132-5.594-1.865-9.662-7.59-9.54-13.589zM38.421 7.855h4.23l0.030 4.41c1.414 0.015 2.837 0.021 4.252 0.028v4.395l-4.252 0.023c-0.015 1.476-0.021 2.944-0.030 4.416-1.414-0.006-2.831 0-4.237 0-0.015-1.472-0.015-2.94-0.030-4.407-1.414-0.017-2.837-0.021-4.252-0.032v-4.395c1.414-0.006 2.831-0.015 4.252-0.030 0.009-1.466 0.021-2.94 0.036-4.407z"></path>
</symbol>
<symbol id="facebook" viewBox="0 0 18 32">
<path fill="#5a5a5a" style="fill: var(--color1, #5a5a5a)" d="M16.938 0.006l-4.222-0.006c-4.742 0-7.808 3.091-7.808 7.875v3.632h-4.242c-0.002-0-0.005-0-0.008-0-0.36 0-0.653 0.29-0.658 0.649v5.261c0 0.362 0.298 0.653 0.664 0.653h4.245v13.275c0 0.362 0.296 0.653 0.664 0.653h5.536c0.368 0 0.666-0.293 0.666-0.653v-13.275h4.962c0.368 0 0.664-0.291 0.664-0.653l0.002-5.261c-0-0.18-0.074-0.343-0.194-0.461l-0-0c-0.121-0.119-0.287-0.192-0.47-0.192-0 0-0.001 0-0.001 0h-4.962v-3.075c0-1.48 0.358-2.23 2.318-2.23l2.843-0.002c0.368 0 0.664-0.293 0.664-0.653v-4.885c-0.003-0.361-0.296-0.653-0.658-0.653-0.002 0-0.003 0-0.005 0h0z"></path>
</symbol>
<symbol id="right" viewBox="0 0 19 32">
<path stroke-linejoin="round" stroke-linecap="round" stroke-miterlimit="4" stroke-width="4.2667" d="M3.2 3.2l12.8 12.8-12.8 12.8"></path>
</symbol>
<symbol id="left" viewBox="0 0 19 32">
<path stroke-linejoin="round" stroke-linecap="round" stroke-miterlimit="4" stroke-width="4.2667" d="M16 3.2l-12.8 12.8 12.8 12.8"></path>
</symbol>
</defs>
</svg>
